<?xml version="1.0" encoding="utf-8"?>
<!-- Generator: Adobe Illustrator 22.1.0, SVG Export Plug-In . SVG Version: 6.00 Build 0)  -->
<svg version="1.1" id="Layer_1" xmlns="http://www.w3.org/2000/svg" xmlns:xlink="http://www.w3.org/1999/xlink" x="0px" y="0px"
	 viewBox="0 0 72 20" style="enable-background:new 0 0 72 20;" xml:space="preserve">
<style type="text/css">
	.st0{fill:#FFFFFF;}
	.st1{fill:#8DC63F;}
</style>
<path class="st0" d="M16.9,0.4c-5.2,0-9.5,4.3-9.5,9.5s4.3,9.5,9.5,9.5s9.5-4.3,9.5-9.5C26.4,4.6,22.2,0.4,16.9,0.4 M24.3,9.8
	c0,4-3.3,7.3-7.3,7.3c-4.1,0-7.3-3.3-7.3-7.3c0-3,1.8-5.6,4.5-6.8c0.9-0.4,1.8-0.6,2.9-0.6c1,0,2,0.2,2.9,0.6
	C22.4,4.2,24.3,6.8,24.3,9.8"/>
<path class="st1" d="M19.8,3.1c-0.9-0.4-1.8-0.6-2.9-0.6c-1,0-2,0.2-2.9,0.6c-2.6,1.1-4.5,3.7-4.5,6.8c0,4.1,3.3,7.3,7.3,7.3
	s7.3-3.3,7.3-7.3C24.3,6.8,22.4,4.2,19.8,3.1 M16.9,14c-2.3,0-4.2-1.9-4.2-4.2s1.9-4.2,4.2-4.2s4.2,1.9,4.2,4.2
	C21.1,12.1,19.3,14,16.9,14"/>
<path class="st1" d="M14.1,3.1c-2.6,1.1-4.5,3.7-4.5,6.8C9.6,6.8,11.4,4.2,14.1,3.1"/>
<path class="st1" d="M19.8,3.1c2.6,1.1,4.5,3.7,4.5,6.8C24.3,6.8,22.4,4.2,19.8,3.1"/>
<path class="st0" d="M49.2,6.8v12.3h3.3c0.2,0,0.4-0.2,0.4-0.4V6.3h-3.3C49.4,6.3,49.2,6.5,49.2,6.8"/>
<path class="st0" d="M0.7,6.8v12.3H4c0.2,0,0.4-0.2,0.4-0.4V6.3H1.1C0.9,6.3,0.7,6.5,0.7,6.8"/>
<path class="st0" d="M63.5,3.8c-4.3,0-7.8,3.5-7.8,7.8s3.5,7.8,7.8,7.8c3.2,0,6-2,7.2-4.8H67c-0.8,0.9-2.1,1.5-3.4,1.5
	c-2,0-3.8-1.3-4.4-3.2h5.1h3.6h3.3c0.1-0.5,0.1-0.9,0.1-1.4C71.4,7.3,67.9,3.8,63.5,3.8 M59.2,10.1C59.8,8.3,61.5,7,63.5,7
	s3.8,1.3,4.4,3.2L59.2,10.1L59.2,10.1z"/>
<path class="st0" d="M43.4,4.2V0.5l-3.6,1v2.7h-5.5V0.5l-3.6,1v2.7h-1.3h-0.9c-0.2,0-0.4,0.2-0.4,0.4V7h2.6v7.5
	c0,1.9,0.1,2.9,1.3,3.8c0.8,0.6,1.9,0.8,2.8,0.8h1.6v-3H36c-0.6,0-1.8-0.1-1.8-1.7V7h5.5v7.5c0,1.9,0.1,2.9,1.3,3.8
	c0.8,0.6,1.9,0.8,2.8,0.8h1.6v-3H45c-0.6,0-1.8-0.1-1.8-1.7V7h2.3l0,0l0,0c0.2,0,0.4-0.2,0.4-0.4V4.2H43.4z"/>
<path class="st0" d="M53.3,2.9c0,1.2-1,2.1-2.1,2.1C50,5,49,4.1,49,2.9s1-2.1,2.1-2.1C52.3,0.7,53.3,1.7,53.3,2.9"/>
<path class="st0" d="M4.7,2.9c0,1.2-1,2.1-2.1,2.1C1.4,5,0.5,4,0.5,2.9c0-1.2,1-2.1,2.1-2.1C3.8,0.7,4.7,1.7,4.7,2.9"/>
</svg>
